<svg xmlns="http://www.w3.org/2000/svg" width="181.5" height="35" viewBox="0 0 181.5 35"><rect class="svg__rect" x="0" y="0" width="87.93" height="35" fill="#31C4F3"/><rect class="svg__rect" x="85.93" y="0" width="95.57" height="35" fill="#389AD5"/><path class="svg__text" d="M15.70 22L14.22 22L14.22 13.47L19.64 13.47L19.64 14.66L15.70 14.66L15.70 17.20L19.13 17.20L19.13 18.38L15.70 18.38L15.70 22ZM23.66 19.16L23.66 19.16L23.66 13.47L25.14 13.47L25.14 19.18Q25.14 20.03 25.57 20.48Q26.01 20.93 26.85 20.93L26.85 20.93Q28.56 20.93 28.56 19.13L28.56 19.13L28.56 13.47L30.04 13.47L30.04 19.17Q30.04 20.53 29.17 21.32Q28.30 22.12 26.85 22.12L26.85 22.12Q25.39 22.12 24.52 21.33Q23.66 20.55 23.66 19.16ZM34.34 18.19L34.34 18.19L34.34 17.39Q34.34 16.19 34.77 15.27Q35.19 14.35 35.99 13.85Q36.79 13.35 37.84 13.35L37.84 13.35Q39.25 13.35 40.12 14.12Q40.98 14.89 41.12 16.29L41.12 16.29L39.64 16.29Q39.54 15.37 39.10 14.96Q38.67 14.55 37.84 14.55L37.84 14.55Q36.88 14.55 36.36 15.26Q35.84 15.96 35.83 17.33L35.83 17.33L35.83 18.09Q35.83 19.47 36.32 20.20Q36.82 20.92 37.77 20.92L37.77 20.92Q38.64 20.92 39.08 20.53Q39.52 20.14 39.64 19.22L39.64 19.22L41.12 19.22Q40.99 20.59 40.11 21.35Q39.23 22.12 37.77 22.12L37.77 22.12Q36.75 22.12 35.98 21.63Q35.20 21.15 34.78 20.26Q34.36 19.37 34.34 18.19ZM46.91 22L45.43 22L45.43 13.47L46.91 13.47L46.91 17.47L47.73 16.46L50.23 13.47L52.02 13.47L48.85 17.25L52.20 22L50.45 22L47.88 18.31L46.91 19.34L46.91 22ZM63.52 22L62.05 22L62.05 13.47L63.52 13.47L63.52 22ZM70.02 14.66L67.38 14.66L67.38 13.47L74.15 13.47L74.15 14.66L71.49 14.66L71.49 22L70.02 22L70.02 14.66Z" fill="#FFFFFF"/><path class="svg__text" d="M102.50 22L100.12 22L100.12 13.60L103.96 13.60Q105.10 13.60 105.94 13.98Q106.78 14.35 107.24 15.06Q107.69 15.76 107.69 16.71L107.69 16.71Q107.69 17.66 107.24 18.35Q106.78 19.05 105.94 19.42Q105.10 19.80 103.96 19.80L103.96 19.80L102.50 19.80L102.50 22ZM102.50 15.47L102.50 17.93L103.82 17.93Q104.55 17.93 104.92 17.61Q105.29 17.29 105.29 16.71L105.29 16.71Q105.29 16.12 104.92 15.80Q104.55 15.47 103.82 15.47L103.82 15.47L102.50 15.47ZM112.02 17.80L112.02 17.80Q112.02 16.55 112.62 15.55Q113.23 14.56 114.29 14.00Q115.35 13.43 116.68 13.43L116.68 13.43Q118.01 13.43 119.08 14.00Q120.14 14.56 120.75 15.55Q121.35 16.55 121.35 17.80L121.35 17.80Q121.35 19.05 120.75 20.04Q120.14 21.04 119.08 21.60Q118.02 22.17 116.68 22.17L116.68 22.17Q115.35 22.17 114.29 21.60Q113.23 21.04 112.62 20.04Q112.02 19.05 112.02 17.80ZM114.41 17.80L114.41 17.80Q114.41 18.51 114.72 19.05Q115.02 19.60 115.53 19.90Q116.05 20.20 116.68 20.20L116.68 20.20Q117.32 20.20 117.84 19.90Q118.35 19.60 118.65 19.05Q118.95 18.51 118.95 17.80L118.95 17.80Q118.95 17.09 118.65 16.54Q118.35 16 117.84 15.70Q117.32 15.40 116.68 15.40L116.68 15.40Q116.04 15.40 115.53 15.70Q115.02 16 114.72 16.54Q114.41 17.09 114.41 17.80ZM125.49 21.24L125.49 21.24L126.27 19.49Q126.84 19.86 127.58 20.09Q128.32 20.32 129.05 20.32L129.05 20.32Q130.41 20.32 130.42 19.64L130.42 19.64Q130.42 19.28 130.03 19.11Q129.64 18.93 128.77 18.74L128.77 18.74Q127.82 18.53 127.19 18.30Q126.55 18.06 126.10 17.55Q125.64 17.03 125.64 16.16L125.64 16.16Q125.64 15.39 126.06 14.77Q126.48 14.15 127.31 13.79Q128.15 13.43 129.36 13.43L129.36 13.43Q130.18 13.43 130.99 13.62Q131.79 13.80 132.41 14.17L132.41 14.17L131.68 15.93Q130.48 15.28 129.34 15.28L129.34 15.28Q128.64 15.28 128.31 15.49Q127.99 15.70 127.99 16.04L127.99 16.04Q127.99 16.37 128.37 16.54Q128.76 16.71 129.61 16.89L129.61 16.89Q130.57 17.10 131.20 17.33Q131.83 17.56 132.29 18.07Q132.75 18.58 132.75 19.46L132.75 19.46Q132.75 20.21 132.34 20.83Q131.92 21.44 131.08 21.80Q130.24 22.17 129.03 22.17L129.03 22.17Q128.01 22.17 127.05 21.92Q126.09 21.67 125.49 21.24ZM139.12 15.48L136.54 15.48L136.54 13.60L144.06 13.60L144.06 15.48L141.50 15.48L141.50 22L139.12 22L139.12 15.48ZM157.79 22L155.41 22L155.41 13.60L157.79 13.60L157.79 22ZM164.75 15.48L162.17 15.48L162.17 13.60L169.69 13.60L169.69 15.48L167.13 15.48L167.13 22L164.75 22L164.75 15.48Z" fill="#FFFFFF" x="98.93"/></svg>